<?xml version="1.0" encoding="UTF-8"?><svg xmlns="http://www.w3.org/2000/svg" xmlns:xlink="http://www.w3.org/1999/xlink" fill-opacity="1" color-rendering="auto" color-interpolation="auto" text-rendering="auto" stroke="black" stroke-linecap="square" width="720" stroke-miterlimit="10" shape-rendering="auto" stroke-opacity="1" fill="black" stroke-dasharray="none" font-weight="normal" stroke-width="1" height="417" font-family="'Dialog'" font-style="normal" stroke-linejoin="miter" font-size="12" stroke-dashoffset="0" image-rendering="auto">
  <!--Generated by ySVG 2.5-->
  <defs id="genericDefs"/>
  <g>
    <defs id="defs1">
      <clipPath clipPathUnits="userSpaceOnUse" id="clipPath1">
        <path d="M0 0 L720 0 L720 417 L0 417 L0 0 Z"/>
      </clipPath>
      <clipPath clipPathUnits="userSpaceOnUse" id="clipPath2">
        <path d="M281 90 L1252 90 L1252 652.3708 L281 652.3708 L281 90 Z"/>
      </clipPath>
      <clipPath clipPathUnits="userSpaceOnUse" id="clipPath3">
        <path d="M346 142 L346 170 L524 170 L524 142 Z"/>
      </clipPath>
      <clipPath clipPathUnits="userSpaceOnUse" id="clipPath4">
        <path d="M373 428 L373 456 L551 456 L551 428 Z"/>
      </clipPath>
      <clipPath clipPathUnits="userSpaceOnUse" id="clipPath5">
        <path d="M997 237 L997 265 L1185 265 L1185 237 Z"/>
      </clipPath>
      <clipPath clipPathUnits="userSpaceOnUse" id="clipPath6">
        <path d="M831 460 L831 488 L1009 488 L1009 460 Z"/>
      </clipPath>
      <clipPath clipPathUnits="userSpaceOnUse" id="clipPath7">
        <path d="M738 90 L738 118 L916 118 L916 90 Z"/>
      </clipPath>
      <clipPath clipPathUnits="userSpaceOnUse" id="clipPath8">
        <path d="M281 206 L281 234 L570 234 L570 206 Z"/>
      </clipPath>
      <clipPath clipPathUnits="userSpaceOnUse" id="clipPath9">
        <path d="M289 270 L289 363 L453 363 L453 270 Z"/>
      </clipPath>
      <clipPath clipPathUnits="userSpaceOnUse" id="clipPath10">
        <path d="M355 486 L355 514 L674 514 L674 486 Z"/>
      </clipPath>
      <clipPath clipPathUnits="userSpaceOnUse" id="clipPath11">
        <path d="M362 544 L362 605 L556 605 L556 544 Z"/>
      </clipPath>
      <clipPath clipPathUnits="userSpaceOnUse" id="clipPath12">
        <path d="M932 303 L932 331 L1251 331 L1251 303 Z"/>
      </clipPath>
      <clipPath clipPathUnits="userSpaceOnUse" id="clipPath13">
        <path d="M667 155 L667 183 L986.0001 183 L986.0001 155 Z"/>
      </clipPath>
      <clipPath clipPathUnits="userSpaceOnUse" id="clipPath14">
        <path d="M761 515 L761 543 L1080 543 L1080 515 Z"/>
      </clipPath>
      <clipPath clipPathUnits="userSpaceOnUse" id="clipPath15">
        <path d="M823 573 L823 652 L1017 652 L1017 573 Z"/>
      </clipPath>
      <clipPath clipPathUnits="userSpaceOnUse" id="clipPath16">
        <path d="M738 220 L738 313 L916 313 L916 220 Z"/>
      </clipPath>
      <clipPath clipPathUnits="userSpaceOnUse" id="clipPath17">
        <path d="M997 361 L997 454 L1185 454 L1185 361 Z"/>
      </clipPath>
    </defs>
    <g fill="rgb(208,255,208)" text-rendering="geometricPrecision" shape-rendering="geometricPrecision" transform="matrix(0.7415,0,0,0.7415,-208.3625,-66.7353)" stroke="rgb(208,255,208)">
      <rect x="346.91" width="178" height="28" y="142.52" clip-path="url(#clipPath2)" stroke="none"/>
    </g>
    <g text-rendering="geometricPrecision" stroke-miterlimit="1.45" shape-rendering="geometricPrecision" transform="matrix(0.7415,0,0,0.7415,-208.3625,-66.7353)" stroke-linecap="butt">
      <rect fill="none" x="346.91" width="178" height="28" y="142.52" clip-path="url(#clipPath2)"/>
      <text x="371.7193" font-size="13" y="159.5869" clip-path="url(#clipPath3)" font-family="'DejaVu Sans'" stroke="none" font-weight="bold" xml:space="preserve">G4UserRunAction</text>
    </g>
    <g fill="rgb(208,255,208)" text-rendering="geometricPrecision" shape-rendering="geometricPrecision" transform="matrix(0.7415,0,0,0.7415,-208.3625,-66.7353)" stroke="rgb(208,255,208)">
      <rect x="373.8" width="178" height="28" y="428.52" clip-path="url(#clipPath2)" stroke="none"/>
    </g>
    <g text-rendering="geometricPrecision" stroke-miterlimit="1.45" shape-rendering="geometricPrecision" transform="matrix(0.7415,0,0,0.7415,-208.3625,-66.7353)" stroke-linecap="butt">
      <rect fill="none" x="373.8" width="178" height="28" y="428.52" clip-path="url(#clipPath2)"/>
      <text x="379.8583" font-size="13" y="445.5869" clip-path="url(#clipPath4)" font-family="'DejaVu Sans'" stroke="none" font-weight="bold" xml:space="preserve">G4UserSteppingAction</text>
    </g>
    <g fill="rgb(208,255,208)" text-rendering="geometricPrecision" shape-rendering="geometricPrecision" transform="matrix(0.7415,0,0,0.7415,-208.3625,-66.7353)" stroke="rgb(208,255,208)">
      <rect x="997.96" width="188.44" height="28" y="237" clip-path="url(#clipPath2)" stroke="none"/>
    </g>
    <g text-rendering="geometricPrecision" stroke-miterlimit="1.45" shape-rendering="geometricPrecision" transform="matrix(0.7415,0,0,0.7415,-208.3625,-66.7353)" stroke-linecap="butt">
      <rect fill="none" x="997.96" width="188.44" height="28" y="237" clip-path="url(#clipPath2)"/>
      <text x="1010.3904" font-size="13" y="254.0669" clip-path="url(#clipPath5)" font-family="'DejaVu Sans'" stroke="none" font-weight="bold" xml:space="preserve">G4UserStackingAction</text>
    </g>
    <g fill="rgb(208,255,208)" text-rendering="geometricPrecision" shape-rendering="geometricPrecision" transform="matrix(0.7415,0,0,0.7415,-208.3625,-66.7353)" stroke="rgb(208,255,208)">
      <rect x="831.93" width="178" height="28" y="460.79" clip-path="url(#clipPath2)" stroke="none"/>
    </g>
    <g text-rendering="geometricPrecision" stroke-miterlimit="1.45" shape-rendering="geometricPrecision" transform="matrix(0.7415,0,0,0.7415,-208.3625,-66.7353)" stroke-linecap="butt">
      <rect fill="none" x="831.93" width="178" height="28" y="460.79" clip-path="url(#clipPath2)"/>
      <text x="839.2896" font-size="13" y="477.8569" clip-path="url(#clipPath6)" font-family="'DejaVu Sans'" stroke="none" font-weight="bold" xml:space="preserve">G4UserTrackingAction</text>
    </g>
    <g fill="rgb(208,255,208)" text-rendering="geometricPrecision" shape-rendering="geometricPrecision" transform="matrix(0.7415,0,0,0.7415,-208.3625,-66.7353)" stroke="rgb(208,255,208)">
      <rect x="738.5" width="178" height="28" y="91" clip-path="url(#clipPath2)" stroke="none"/>
    </g>
    <g text-rendering="geometricPrecision" stroke-miterlimit="1.45" shape-rendering="geometricPrecision" transform="matrix(0.7415,0,0,0.7415,-208.3625,-66.7353)" stroke-linecap="butt">
      <rect fill="none" x="738.5" width="178" height="28" y="91" clip-path="url(#clipPath2)"/>
      <text x="756.749" font-size="13" y="108.0669" clip-path="url(#clipPath7)" font-family="'DejaVu Sans'" stroke="none" font-weight="bold" xml:space="preserve">G4UserEventAction</text>
    </g>
    <g fill="rgb(255,192,192)" text-rendering="geometricPrecision" shape-rendering="geometricPrecision" transform="matrix(0.7415,0,0,0.7415,-208.3625,-66.7353)" stroke="rgb(255,192,192)">
      <rect x="562.92" width="216" height="127.68" y="328.84" clip-path="url(#clipPath2)" stroke="none"/>
    </g>
    <g text-rendering="geometricPrecision" stroke-miterlimit="1.45" shape-rendering="geometricPrecision" transform="matrix(0.7415,0,0,0.7415,-208.3625,-66.7353)" stroke-linecap="butt">
      <rect fill="none" x="562.92" width="216" height="127.68" y="328.84" clip-path="url(#clipPath2)"/>
      <text x="623.7256" xml:space="preserve" y="344.9787" clip-path="url(#clipPath2)" font-family="sans-serif" stroke="none">&lt;&lt;template&gt;&gt;</text>
      <text x="575.6856" font-size="16" y="371.6603" clip-path="url(#clipPath2)" font-family="'DejaVu Sans'" stroke="none" font-weight="bold" xml:space="preserve">CompositeAction&lt;T&gt;</text>
      <line stroke-linecap="square" clip-path="url(#clipPath2)" fill="none" x1="563" x2="777" y1="380" y2="380" stroke-miterlimit="10"/>
      <text x="567.92" xml:space="preserve" y="396.5724" clip-path="url(#clipPath2)" font-family="sans-serif" stroke="none">fSubActions</text>
      <line stroke-linecap="square" clip-path="url(#clipPath2)" fill="none" x1="563" x2="777" y1="404" y2="404" stroke-miterlimit="10"/>
      <text x="567.92" xml:space="preserve" y="420.5412" clip-path="url(#clipPath2)" font-family="sans-serif" stroke="none">Add()</text>
      <text x="567.92" xml:space="preserve" y="434.5099" clip-path="url(#clipPath2)" font-family="sans-serif" stroke="none">Remove()</text>
      <text x="567.92" xml:space="preserve" y="448.4787" clip-path="url(#clipPath2)" font-family="sans-serif" stroke="none">Empty()</text>
    </g>
    <g fill="white" text-rendering="geometricPrecision" shape-rendering="geometricPrecision" transform="matrix(0.7415,0,0,0.7415,-208.3625,-66.7353)" stroke="white">
      <rect x="281.4" width="289.52" height="28" y="206.51" clip-path="url(#clipPath2)" stroke="none"/>
    </g>
    <g text-rendering="geometricPrecision" stroke-miterlimit="1.45" shape-rendering="geometricPrecision" transform="matrix(0.7415,0,0,0.7415,-208.3625,-66.7353)" stroke-linecap="butt">
      <rect fill="none" x="281.4" width="289.52" height="28" y="206.51" clip-path="url(#clipPath2)"/>
      <text x="302.8917" font-size="13" y="223.5769" clip-path="url(#clipPath8)" font-family="'DejaVu Sans'" font-style="italic" stroke="none" xml:space="preserve">CompositeAction&lt;G4UserRunAction&gt;</text>
    </g>
    <g fill="rgb(255,255,153)" text-rendering="geometricPrecision" shape-rendering="geometricPrecision" transform="matrix(0.7415,0,0,0.7415,-208.3625,-66.7353)" stroke="rgb(255,255,153)">
      <rect x="289.96" width="164.44" height="93" y="270.52" clip-path="url(#clipPath2)" stroke="none"/>
    </g>
    <g text-rendering="geometricPrecision" stroke-miterlimit="1.45" shape-rendering="geometricPrecision" transform="matrix(0.7415,0,0,0.7415,-208.3625,-66.7353)" stroke-linecap="butt">
      <rect fill="none" x="289.96" width="164.44" height="93" y="270.52" clip-path="url(#clipPath2)"/>
      <text x="295.8685" font-size="13" y="287.5869" clip-path="url(#clipPath9)" font-family="'DejaVu Sans'" stroke="none" font-weight="bold" xml:space="preserve">CompositeRunAction</text>
      <line stroke-linecap="square" clip-path="url(#clipPath9)" fill="none" x1="290" x2="453" y1="295" y2="295" stroke-miterlimit="10"/>
      <line stroke-linecap="square" clip-path="url(#clipPath9)" fill="none" x1="290" x2="453" y1="305" y2="305" stroke-miterlimit="10"/>
      <text x="294.96" xml:space="preserve" y="321.7915" clip-path="url(#clipPath9)" font-family="sans-serif" stroke="none">GenerateRun()</text>
      <text x="294.96" xml:space="preserve" y="335.7602" clip-path="url(#clipPath9)" font-family="sans-serif" stroke="none">BeginOfRunAction()</text>
      <text x="294.96" xml:space="preserve" y="349.729" clip-path="url(#clipPath9)" font-family="sans-serif" stroke="none">EndOfRunAction()</text>
    </g>
    <g fill="white" text-rendering="geometricPrecision" shape-rendering="geometricPrecision" transform="matrix(0.7415,0,0,0.7415,-208.3625,-66.7353)" stroke="white">
      <rect x="355.88" width="319.52" height="28" y="486.52" clip-path="url(#clipPath2)" stroke="none"/>
    </g>
    <g text-rendering="geometricPrecision" stroke-miterlimit="1.45" shape-rendering="geometricPrecision" transform="matrix(0.7415,0,0,0.7415,-208.3625,-66.7353)" stroke-linecap="butt">
      <rect fill="none" x="355.88" width="319.52" height="28" y="486.52" clip-path="url(#clipPath2)"/>
      <text x="376.1503" font-size="13" y="503.5869" clip-path="url(#clipPath10)" font-family="'DejaVu Sans'" font-style="italic" stroke="none" xml:space="preserve">CompositeAction&lt;G4UserSteppingAction&gt;</text>
    </g>
    <g fill="rgb(255,255,153)" text-rendering="geometricPrecision" shape-rendering="geometricPrecision" transform="matrix(0.7415,0,0,0.7415,-208.3625,-66.7353)" stroke="rgb(255,255,153)">
      <rect x="362.17" width="194.44" height="61" y="544.52" clip-path="url(#clipPath2)" stroke="none"/>
    </g>
    <g text-rendering="geometricPrecision" stroke-miterlimit="1.45" shape-rendering="geometricPrecision" transform="matrix(0.7415,0,0,0.7415,-208.3625,-66.7353)" stroke-linecap="butt">
      <rect fill="none" x="362.17" width="194.44" height="61" y="544.52" clip-path="url(#clipPath2)"/>
      <text x="364.3275" font-size="13" y="561.5869" clip-path="url(#clipPath11)" font-family="'DejaVu Sans'" stroke="none" font-weight="bold" xml:space="preserve">CompositeSteppingAction</text>
      <line stroke-linecap="square" clip-path="url(#clipPath11)" fill="none" x1="363" x2="555" y1="569" y2="569" stroke-miterlimit="10"/>
      <line stroke-linecap="square" clip-path="url(#clipPath11)" fill="none" x1="363" x2="555" y1="579" y2="579" stroke-miterlimit="10"/>
      <text x="367.17" xml:space="preserve" y="595.7915" clip-path="url(#clipPath11)" font-family="sans-serif" stroke="none">UserSteppingAction()</text>
    </g>
    <g fill="white" text-rendering="geometricPrecision" shape-rendering="geometricPrecision" transform="matrix(0.7415,0,0,0.7415,-208.3625,-66.7353)" stroke="white">
      <rect x="932.42" width="319.52" height="28" y="303.02" clip-path="url(#clipPath2)" stroke="none"/>
    </g>
    <g text-rendering="geometricPrecision" stroke-miterlimit="1.45" shape-rendering="geometricPrecision" transform="matrix(0.7415,0,0,0.7415,-208.3625,-66.7353)" stroke-linecap="butt">
      <rect fill="none" x="932.42" width="319.52" height="28" y="303.02" clip-path="url(#clipPath2)"/>
      <text x="953.6202" font-size="13" y="320.0869" clip-path="url(#clipPath12)" font-family="'DejaVu Sans'" font-style="italic" stroke="none" xml:space="preserve">CompositeAction&lt;G4UserStackingAction&gt;</text>
    </g>
    <g fill="white" text-rendering="geometricPrecision" shape-rendering="geometricPrecision" transform="matrix(0.7415,0,0,0.7415,-208.3625,-66.7353)" stroke="white">
      <rect x="667.74" width="319.52" height="28" y="155.64" clip-path="url(#clipPath2)" stroke="none"/>
    </g>
    <g text-rendering="geometricPrecision" stroke-miterlimit="1.45" shape-rendering="geometricPrecision" transform="matrix(0.7415,0,0,0.7415,-208.3625,-66.7353)" stroke-linecap="butt">
      <rect fill="none" x="667.74" width="319.52" height="28" y="155.64" clip-path="url(#clipPath2)"/>
      <text x="698.3665" font-size="13" y="172.7069" clip-path="url(#clipPath13)" font-family="'DejaVu Sans'" font-style="italic" stroke="none" xml:space="preserve">CompositeAction&lt;G4UserEventAction&gt;</text>
    </g>
    <g fill="white" text-rendering="geometricPrecision" shape-rendering="geometricPrecision" transform="matrix(0.7415,0,0,0.7415,-208.3625,-66.7353)" stroke="white">
      <rect x="761.17" width="319.52" height="28" y="515.3" clip-path="url(#clipPath2)" stroke="none"/>
    </g>
    <g text-rendering="geometricPrecision" stroke-miterlimit="1.45" shape-rendering="geometricPrecision" transform="matrix(0.7415,0,0,0.7415,-208.3625,-66.7353)" stroke-linecap="butt">
      <rect fill="none" x="761.17" width="319.52" height="28" y="515.3" clip-path="url(#clipPath2)"/>
      <text x="782.4019" font-size="13" y="532.3669" clip-path="url(#clipPath14)" font-family="'DejaVu Sans'" font-style="italic" stroke="none" xml:space="preserve">CompositeAction&lt;G4UserTrackingAction&gt;</text>
    </g>
    <g fill="rgb(255,255,153)" text-rendering="geometricPrecision" shape-rendering="geometricPrecision" transform="matrix(0.7415,0,0,0.7415,-208.3625,-66.7353)" stroke="rgb(255,255,153)">
      <rect x="823.71" width="194.44" height="79" y="573.3" clip-path="url(#clipPath2)" stroke="none"/>
    </g>
    <g text-rendering="geometricPrecision" stroke-miterlimit="1.45" shape-rendering="geometricPrecision" transform="matrix(0.7415,0,0,0.7415,-208.3625,-66.7353)" stroke-linecap="butt">
      <rect fill="none" x="823.71" width="194.44" height="79" y="573.3" clip-path="url(#clipPath2)"/>
      <text x="827.1688" font-size="13" y="590.3669" clip-path="url(#clipPath15)" font-family="'DejaVu Sans'" stroke="none" font-weight="bold" xml:space="preserve">CompositeTrackingAction</text>
      <line stroke-linecap="square" clip-path="url(#clipPath15)" fill="none" x1="824" x2="1017" y1="598" y2="598" stroke-miterlimit="10"/>
      <line stroke-linecap="square" clip-path="url(#clipPath15)" fill="none" x1="824" x2="1017" y1="608" y2="608" stroke-miterlimit="10"/>
      <text x="828.71" xml:space="preserve" y="624.5715" clip-path="url(#clipPath15)" font-family="sans-serif" stroke="none">PreUserTrackingAction()</text>
      <text x="828.71" xml:space="preserve" y="638.5402" clip-path="url(#clipPath15)" font-family="sans-serif" stroke="none">PostUserTrackingAction()</text>
    </g>
    <g fill="rgb(255,255,153)" text-rendering="geometricPrecision" shape-rendering="geometricPrecision" transform="matrix(0.7415,0,0,0.7415,-208.3625,-66.7353)" stroke="rgb(255,255,153)">
      <rect x="738.5" width="178" height="93" y="220.28" clip-path="url(#clipPath2)" stroke="none"/>
    </g>
    <g text-rendering="geometricPrecision" stroke-miterlimit="1.45" shape-rendering="geometricPrecision" transform="matrix(0.7415,0,0,0.7415,-208.3625,-66.7353)" stroke-linecap="butt">
      <rect fill="none" x="738.5" width="178" height="93" y="220.28" clip-path="url(#clipPath2)"/>
      <text x="744.6282" font-size="13" y="237.3469" clip-path="url(#clipPath16)" font-family="'DejaVu Sans'" stroke="none" font-weight="bold" xml:space="preserve">CompositeEventAction</text>
      <line stroke-linecap="square" clip-path="url(#clipPath16)" fill="none" x1="739" x2="915" y1="245" y2="245" stroke-miterlimit="10"/>
      <line stroke-linecap="square" clip-path="url(#clipPath16)" fill="none" x1="739" x2="915" y1="255" y2="255" stroke-miterlimit="10"/>
      <text x="743.5" xml:space="preserve" y="271.5515" clip-path="url(#clipPath16)" font-family="sans-serif" stroke="none">BeginOfEventAction()</text>
      <text x="743.5" xml:space="preserve" y="285.5202" clip-path="url(#clipPath16)" font-family="sans-serif" stroke="none">EndOfEventAction()</text>
    </g>
    <g fill="rgb(255,255,153)" text-rendering="geometricPrecision" shape-rendering="geometricPrecision" transform="matrix(0.7415,0,0,0.7415,-208.3625,-66.7353)" stroke="rgb(255,255,153)">
      <rect x="997.96" width="188.44" height="93" y="361.02" clip-path="url(#clipPath2)" stroke="none"/>
    </g>
    <g text-rendering="geometricPrecision" stroke-miterlimit="1.45" shape-rendering="geometricPrecision" transform="matrix(0.7415,0,0,0.7415,-208.3625,-66.7353)" stroke-linecap="butt">
      <rect fill="none" x="997.96" width="188.44" height="93" y="361.02" clip-path="url(#clipPath2)"/>
      <text x="998.2696" font-size="13" y="378.0869" clip-path="url(#clipPath17)" font-family="'DejaVu Sans'" stroke="none" font-weight="bold" xml:space="preserve">CompositeStackingAction</text>
      <line stroke-linecap="square" clip-path="url(#clipPath17)" fill="none" x1="998" x2="1185" y1="386" y2="386" stroke-miterlimit="10"/>
      <line stroke-linecap="square" clip-path="url(#clipPath17)" fill="none" x1="998" x2="1185" y1="396" y2="396" stroke-miterlimit="10"/>
      <text x="1002.96" xml:space="preserve" y="412.2915" clip-path="url(#clipPath17)" font-family="sans-serif" stroke="none">ClassifyNewTrack()</text>
      <text x="1002.96" xml:space="preserve" y="426.2602" clip-path="url(#clipPath17)" font-family="sans-serif" stroke="none">NewStage()</text>
      <text x="1002.96" xml:space="preserve" y="440.229" clip-path="url(#clipPath17)" font-family="sans-serif" stroke="none">PrepareNewEvent()</text>
      <path fill="none" stroke-dasharray="6,2" d="M446.0886 234.5282 L567.8899 320.2061" clip-path="url(#clipPath2)"/>
      <path fill="white" stroke-dasharray="6,2" d="M580.1586 328.8363 L570.524 314.7233 L563.6199 324.5383 Z" clip-path="url(#clipPath2)" stroke="none"/>
      <path fill="none" d="M580.1586 328.8363 L570.524 314.7233 L563.6199 324.5383 Z" clip-path="url(#clipPath2)"/>
      <path fill="none" d="M426.16 206.4899 L426.16 185.5221" clip-path="url(#clipPath2)"/>
      <path fill="white" d="M426.16 170.5221 L420.16 186.5221 L432.16 186.5221 Z" clip-path="url(#clipPath2)" stroke="none"/>
      <path fill="none" d="M426.16 170.5221 L420.16 186.5221 L432.16 186.5221 Z" clip-path="url(#clipPath2)"/>
      <path fill="none" d="M301.88 199.5141 L301.88 156.52 L346.9384 156.52" clip-path="url(#clipPath2)"/>
      <path d="M301.88 206.5141 L296.88 199.5141 L301.88 192.5141 L306.88 199.5141 Z" clip-path="url(#clipPath2)" stroke="none"/>
      <path fill="none" d="M426.16 270.4794 L426.16 249.5151" clip-path="url(#clipPath2)"/>
      <path fill="white" d="M426.16 234.5151 L420.16 250.5151 L432.16 250.5151 Z" clip-path="url(#clipPath2)" stroke="none"/>
      <path fill="none" d="M426.16 234.5151 L420.16 250.5151 L432.16 250.5151 Z" clip-path="url(#clipPath2)"/>
      <path fill="none" stroke-dasharray="6,2" d="M535.7703 486.5398 L566.7072 465.0545" clip-path="url(#clipPath2)"/>
      <path fill="white" stroke-dasharray="6,2" d="M579.0275 456.4982 L562.4633 460.6968 L569.3083 470.553 Z" clip-path="url(#clipPath2)" stroke="none"/>
      <path fill="none" d="M579.0275 456.4982 L562.4633 460.6968 L569.3083 470.553 Z" clip-path="url(#clipPath2)"/>
      <path fill="none" d="M462.8 486.4909 L462.8 471.5615" clip-path="url(#clipPath2)"/>
      <path fill="white" d="M462.8 456.5615 L456.8 472.5615 L468.8 472.5615 Z" clip-path="url(#clipPath2)" stroke="none"/>
      <path fill="none" d="M462.8 456.5615 L456.8 472.5615 L468.8 472.5615 Z" clip-path="url(#clipPath2)"/>
      <path fill="none" d="M355.8612 500.52 L354.88 500.52 L335.88 500.52 L335.88 442.52 L373.7763 442.52" clip-path="url(#clipPath2)"/>
      <path d="M355.8612 500.52 L348.8612 505.52 L341.8612 500.52 L348.8612 495.52 Z" clip-path="url(#clipPath2)" stroke="none"/>
      <path fill="none" d="M459.39 544.5032 L459.39 529.5475" clip-path="url(#clipPath2)"/>
      <path fill="white" d="M459.39 514.5475 L453.39 530.5475 L465.39 530.5475 Z" clip-path="url(#clipPath2)" stroke="none"/>
      <path fill="none" d="M459.39 514.5475 L453.39 530.5475 L465.39 530.5475 Z" clip-path="url(#clipPath2)"/>
      <path fill="none" d="M1092.1801 302.9972 L1092.1801 279.9895" clip-path="url(#clipPath2)"/>
      <path fill="white" d="M1092.1801 264.9895 L1086.1801 280.9895 L1098.1801 280.9895 Z" clip-path="url(#clipPath2)" stroke="none"/>
      <path fill="none" d="M1092.1801 264.9895 L1086.1801 280.9895 L1098.1801 280.9895 Z" clip-path="url(#clipPath2)"/>
      <path fill="none" stroke-dasharray="6,2" d="M1014.2479 331.0169 L793.6862 370.6307" clip-path="url(#clipPath2)"/>
      <path fill="white" stroke-dasharray="6,2" d="M778.9224 373.2823 L795.7311 376.3594 L793.6098 364.5484 Z" clip-path="url(#clipPath2)" stroke="none"/>
      <path fill="none" d="M778.9224 373.2823 L795.7311 376.3594 L793.6098 364.5484 Z" clip-path="url(#clipPath2)"/>
      <path fill="none" d="M1213.88 296.0343 L1213.88 251 L1186.3965 251" clip-path="url(#clipPath2)"/>
      <path d="M1213.88 303.0343 L1208.88 296.0343 L1213.88 289.0343 L1218.88 296.0343 Z" clip-path="url(#clipPath2)" stroke="none"/>
      <path fill="none" d="M827.5 155.6578 L827.5 134.0002" clip-path="url(#clipPath2)"/>
      <path fill="white" d="M827.5 119.0002 L821.5 135.0002 L833.5 135.0002 Z" clip-path="url(#clipPath2)" stroke="none"/>
      <path fill="none" d="M827.5 119.0002 L821.5 135.0002 L833.5 135.0002 Z" clip-path="url(#clipPath2)"/>
      <path fill="none" stroke-dasharray="6,2" d="M782.7716 183.6448 L690.88 212.4167 L629.6498 315.921" clip-path="url(#clipPath2)"/>
      <path fill="white" stroke-dasharray="6,2" d="M622.0125 328.8311 L635.323 318.1152 L624.9949 312.0054 Z" clip-path="url(#clipPath2)" stroke="none"/>
      <path fill="none" d="M622.0125 328.8311 L635.323 318.1152 L624.9949 312.0054 Z" clip-path="url(#clipPath2)"/>
      <path fill="none" d="M947.88 148.612 L947.88 105 L916.5212 105" clip-path="url(#clipPath2)"/>
      <path d="M947.88 155.612 L942.88 148.612 L947.88 141.612 L952.88 148.612 Z" clip-path="url(#clipPath2)" stroke="none"/>
      <path fill="none" stroke-dasharray="6,2" d="M875.1819 515.3075 L806.88 494.4167 L768.27 465.5255" clip-path="url(#clipPath2)"/>
      <path fill="white" stroke-dasharray="6,2" d="M756.2601 456.5386 L765.476 470.9285 L772.6654 461.3206 Z" clip-path="url(#clipPath2)" stroke="none"/>
      <path fill="none" d="M756.2601 456.5386 L765.476 470.9285 L772.6654 461.3206 Z" clip-path="url(#clipPath2)"/>
      <path fill="none" d="M920.93 515.3265 L920.93 503.764" clip-path="url(#clipPath2)"/>
      <path fill="white" d="M920.93 488.764 L914.93 504.764 L926.93 504.764 Z" clip-path="url(#clipPath2)" stroke="none"/>
      <path fill="none" d="M920.93 488.764 L914.93 504.764 L926.93 504.764 Z" clip-path="url(#clipPath2)"/>
      <path fill="none" d="M1054.88 508.2926 L1054.88 474.79 L1009.9139 474.79" clip-path="url(#clipPath2)"/>
      <path d="M1054.88 515.2926 L1049.88 508.2926 L1054.88 501.2926 L1059.88 508.2926 Z" clip-path="url(#clipPath2)" stroke="none"/>
      <path fill="none" d="M920.93 573.2924 L920.93 558.2625" clip-path="url(#clipPath2)"/>
      <path fill="white" d="M920.93 543.2625 L914.93 559.2625 L926.93 559.2625 Z" clip-path="url(#clipPath2)" stroke="none"/>
      <path fill="none" d="M920.93 543.2625 L914.93 559.2625 L926.93 559.2625 Z" clip-path="url(#clipPath2)"/>
      <path fill="none" d="M827.5 220.2496 L827.5 198.6268" clip-path="url(#clipPath2)"/>
      <path fill="white" d="M827.5 183.6268 L821.5 199.6268 L833.5 199.6268 Z" clip-path="url(#clipPath2)" stroke="none"/>
      <path fill="none" d="M827.5 183.6268 L821.5 199.6268 L833.5 199.6268 Z" clip-path="url(#clipPath2)"/>
      <path fill="none" d="M1092.1801 360.9885 L1092.1801 346.0607" clip-path="url(#clipPath2)"/>
      <path fill="white" d="M1092.1801 331.0607 L1086.1801 347.0607 L1098.1801 347.0607 Z" clip-path="url(#clipPath2)" stroke="none"/>
      <path fill="none" d="M1092.1801 331.0607 L1086.1801 347.0607 L1098.1801 347.0607 Z" clip-path="url(#clipPath2)"/>
    </g>
  </g>
</svg>
